<svg width="1440" height="64" viewBox="0 0 1440 64" fill="none" xmlns="http://www.w3.org/2000/svg">
<rect width="1440" height="64" fill="black"/>
<rect x="81" width="1280" height="64" fill="black"/>
<path d="M138 32C138 23.7157 144.716 17 153 17H253C261.284 17 268 23.7157 268 32C268 40.2843 261.284 47 253 47H199.977H153C144.716 47 138 40.2843 138 32Z" fill="black"/>
<path d="M240 30L245 34.5L249.5 30" stroke="white"/>
<path d="M166.542 27.69C166.038 27.69 165.581 27.7833 165.17 27.97C164.769 28.1567 164.419 28.432 164.12 28.796C163.831 29.16 163.607 29.6127 163.448 30.154C163.289 30.6953 163.21 31.3207 163.21 32.03C163.21 32.7393 163.285 33.3647 163.434 33.906C163.593 34.438 163.821 34.886 164.12 35.25C164.419 35.614 164.783 35.8893 165.212 36.076C165.651 36.2627 166.15 36.356 166.71 36.356C167.326 36.356 167.858 36.23 168.306 35.978C168.754 35.726 169.123 35.3853 169.412 34.956C169.711 34.5173 169.939 34.032 170.098 33.5L170.966 33.85C170.77 34.5313 170.476 35.1287 170.084 35.642C169.692 36.146 169.207 36.538 168.628 36.818C168.049 37.098 167.387 37.238 166.64 37.238C165.921 37.238 165.263 37.1213 164.666 36.888C164.078 36.6547 163.569 36.314 163.14 35.866C162.711 35.4087 162.379 34.858 162.146 34.214C161.922 33.57 161.81 32.842 161.81 32.03C161.81 31.2087 161.927 30.476 162.16 29.832C162.403 29.188 162.739 28.642 163.168 28.194C163.597 27.746 164.097 27.4053 164.666 27.172C165.245 26.9293 165.865 26.808 166.528 26.808C167.181 26.808 167.746 26.92 168.222 27.144C168.698 27.3587 169.09 27.676 169.398 28.096C169.706 28.516 169.921 29.034 170.042 29.65L169.636 29.286L169.832 26.99H170.742V30.322H169.762C169.603 29.7807 169.379 29.314 169.09 28.922C168.801 28.53 168.441 28.2267 168.012 28.012C167.592 27.7973 167.102 27.69 166.542 27.69ZM179.908 33.248C179.908 34.0413 179.75 34.732 179.432 35.32C179.124 35.908 178.686 36.3607 178.116 36.678C177.556 36.9953 176.898 37.154 176.142 37.154C175.377 37.154 174.71 36.9953 174.14 36.678C173.58 36.3607 173.142 35.908 172.824 35.32C172.516 34.732 172.362 34.0413 172.362 33.248C172.362 32.6507 172.451 32.114 172.628 31.638C172.806 31.1527 173.062 30.742 173.398 30.406C173.734 30.0607 174.131 29.7993 174.588 29.622C175.055 29.4353 175.573 29.342 176.142 29.342C176.712 29.342 177.225 29.4353 177.682 29.622C178.14 29.7993 178.536 30.0607 178.872 30.406C179.208 30.742 179.465 31.1527 179.642 31.638C179.82 32.114 179.908 32.6507 179.908 33.248ZM173.678 33.248C173.678 33.92 173.772 34.4847 173.958 34.942C174.145 35.3993 174.42 35.7447 174.784 35.978C175.148 36.202 175.601 36.314 176.142 36.314C176.684 36.314 177.136 36.202 177.5 35.978C177.864 35.7447 178.135 35.3993 178.312 34.942C178.499 34.4847 178.592 33.92 178.592 33.248C178.592 32.5947 178.499 32.044 178.312 31.596C178.135 31.1387 177.864 30.7933 177.5 30.56C177.136 30.3173 176.684 30.196 176.142 30.196C175.601 30.196 175.148 30.3173 174.784 30.56C174.42 30.7933 174.145 31.1387 173.958 31.596C173.772 32.044 173.678 32.5947 173.678 33.248ZM181.165 37V36.328H181.207C181.571 36.328 181.856 36.2767 182.061 36.174C182.276 36.0713 182.383 35.8613 182.383 35.544V30.868C182.383 30.728 182.341 30.6253 182.257 30.56C182.182 30.4853 182.066 30.4247 181.907 30.378C181.748 30.3313 181.548 30.2847 181.305 30.238L181.165 30.21V29.482H183.391L183.559 31.064L183.629 31.148V36.188C183.629 36.216 183.685 36.244 183.797 36.272C183.909 36.2907 184.04 36.3047 184.189 36.314C184.348 36.3233 184.488 36.328 184.609 36.328H184.665V37H181.165ZM189.117 37H185.799V36.328H185.841C185.972 36.328 186.112 36.3233 186.261 36.314C186.42 36.3047 186.555 36.2907 186.667 36.272C186.779 36.244 186.835 36.216 186.835 36.188V31.61C186.835 31.3113 186.802 31.064 186.737 30.868C186.672 30.6627 186.564 30.5133 186.415 30.42C186.266 30.3173 186.056 30.266 185.785 30.266C185.496 30.266 185.22 30.3267 184.959 30.448C184.698 30.5693 184.436 30.7513 184.175 30.994C183.914 31.2273 183.643 31.5213 183.363 31.876L183.377 31.064C183.648 30.7 183.918 30.392 184.189 30.14C184.469 29.8787 184.768 29.6827 185.085 29.552C185.402 29.412 185.748 29.342 186.121 29.342C186.532 29.342 186.882 29.4213 187.171 29.58C187.47 29.7293 187.694 29.9627 187.843 30.28C188.002 30.588 188.081 30.98 188.081 31.456V36.188C188.081 36.216 188.132 36.244 188.235 36.272C188.347 36.2907 188.482 36.3047 188.641 36.314C188.8 36.3233 188.944 36.328 189.075 36.328H189.117V37ZM193.765 37H190.251V36.328H190.307C190.438 36.328 190.578 36.3233 190.727 36.314C190.876 36.3047 191.002 36.2907 191.105 36.272C191.217 36.244 191.273 36.216 191.273 36.188V31.61C191.273 31.3113 191.24 31.064 191.175 30.868C191.11 30.6627 191.002 30.5133 190.853 30.42C190.704 30.3173 190.498 30.266 190.237 30.266C189.948 30.266 189.668 30.3267 189.397 30.448C189.136 30.5693 188.874 30.7513 188.613 30.994C188.361 31.2273 188.095 31.5213 187.815 31.876V31.064C188.095 30.7 188.37 30.392 188.641 30.14C188.921 29.8787 189.215 29.6827 189.523 29.552C189.84 29.412 190.186 29.342 190.559 29.342C190.979 29.342 191.334 29.4213 191.623 29.58C191.912 29.7293 192.132 29.9627 192.281 30.28C192.44 30.588 192.519 30.98 192.519 31.456V35.544C192.519 35.8613 192.626 36.0713 192.841 36.174C193.056 36.2767 193.345 36.328 193.709 36.328H193.765V37ZM198.592 40.122H194.714V39.45H194.756C194.989 39.45 195.19 39.4267 195.358 39.38C195.535 39.3427 195.671 39.2633 195.764 39.142C195.857 39.03 195.904 38.8713 195.904 38.666V30.868C195.904 30.728 195.862 30.6253 195.778 30.56C195.703 30.4853 195.582 30.4247 195.414 30.378C195.255 30.3313 195.055 30.2847 194.812 30.238L194.672 30.21V29.482H196.912L197.08 31.218L197.15 31.302V39.31C197.15 39.338 197.211 39.3613 197.332 39.38C197.453 39.408 197.598 39.4267 197.766 39.436C197.934 39.4453 198.083 39.45 198.214 39.45H198.592V40.122ZM199.614 37.154C199.203 37.154 198.835 37.084 198.508 36.944C198.191 36.804 197.897 36.6033 197.626 36.342C197.365 36.0713 197.117 35.7447 196.884 35.362L196.926 34.452C197.169 34.8627 197.421 35.2033 197.682 35.474C197.943 35.7447 198.228 35.95 198.536 36.09C198.844 36.23 199.18 36.3 199.544 36.3C199.908 36.3 200.23 36.2347 200.51 36.104C200.79 35.964 201.019 35.7633 201.196 35.502C201.383 35.2313 201.523 34.9047 201.616 34.522C201.709 34.1393 201.756 33.7007 201.756 33.206C201.756 32.7207 201.714 32.296 201.63 31.932C201.546 31.5587 201.415 31.246 201.238 30.994C201.07 30.7327 200.851 30.5367 200.58 30.406C200.309 30.2753 199.992 30.21 199.628 30.21C199.245 30.21 198.895 30.28 198.578 30.42C198.261 30.5507 197.967 30.756 197.696 31.036C197.425 31.3067 197.164 31.6473 196.912 32.058L196.884 31.19C197.136 30.798 197.397 30.4667 197.668 30.196C197.939 29.916 198.242 29.706 198.578 29.566C198.923 29.4167 199.315 29.342 199.754 29.342C200.454 29.342 201.051 29.5053 201.546 29.832C202.041 30.1587 202.419 30.6113 202.68 31.19C202.941 31.7593 203.072 32.4313 203.072 33.206C203.072 33.9713 202.937 34.6527 202.666 35.25C202.395 35.838 201.999 36.3047 201.476 36.65C200.963 36.986 200.342 37.154 199.614 37.154ZM209.258 32.422V33.164C208.688 33.2387 208.198 33.3227 207.788 33.416C207.377 33.5093 207.036 33.612 206.766 33.724C206.495 33.836 206.28 33.962 206.122 34.102C205.963 34.242 205.851 34.4007 205.786 34.578C205.72 34.7553 205.688 34.9467 205.688 35.152C205.688 35.4133 205.739 35.6327 205.842 35.81C205.954 35.9873 206.108 36.1227 206.304 36.216C206.5 36.3 206.728 36.342 206.99 36.342C207.288 36.342 207.564 36.272 207.816 36.132C208.068 35.992 208.31 35.782 208.544 35.502C208.777 35.222 209.006 34.872 209.23 34.452L209.244 35.278C209.057 35.6607 208.838 35.992 208.586 36.272C208.343 36.552 208.063 36.7713 207.746 36.93C207.438 37.0793 207.088 37.154 206.696 37.154C206.248 37.154 205.851 37.0793 205.506 36.93C205.16 36.7713 204.89 36.5427 204.694 36.244C204.498 35.9453 204.4 35.586 204.4 35.166C204.4 34.774 204.488 34.4333 204.666 34.144C204.843 33.8547 205.123 33.6027 205.506 33.388C205.898 33.1733 206.402 32.9867 207.018 32.828C207.634 32.6693 208.38 32.534 209.258 32.422ZM209.23 37L209.062 35.376L208.992 35.292V31.638C208.992 31.2833 208.945 30.9987 208.852 30.784C208.758 30.5693 208.6 30.4153 208.376 30.322C208.161 30.2287 207.867 30.182 207.494 30.182C206.934 30.182 206.476 30.2613 206.122 30.42C205.767 30.5787 205.501 30.7467 205.324 30.924C205.324 30.8493 205.342 30.7747 205.38 30.7C205.417 30.616 205.468 30.5413 205.534 30.476C205.599 30.4013 205.674 30.3407 205.758 30.294C205.851 30.2473 205.954 30.2147 206.066 30.196V31.82H204.834V30.112C204.964 30.0093 205.151 29.902 205.394 29.79C205.646 29.6687 205.954 29.566 206.318 29.482C206.682 29.3887 207.092 29.342 207.55 29.342C207.923 29.342 208.273 29.3793 208.6 29.454C208.926 29.5287 209.211 29.65 209.454 29.818C209.696 29.986 209.888 30.2053 210.028 30.476C210.168 30.7467 210.238 31.078 210.238 31.47V35.698C210.238 35.8287 210.284 35.9313 210.378 36.006C210.471 36.0807 210.602 36.1367 210.77 36.174C210.938 36.202 211.143 36.23 211.386 36.258L211.456 36.272V37H209.23ZM212.31 37V36.328H212.352C212.594 36.328 212.804 36.3093 212.982 36.272C213.159 36.2253 213.294 36.146 213.388 36.034C213.481 35.9127 213.528 35.7493 213.528 35.544V30.868C213.528 30.728 213.486 30.6253 213.402 30.56C213.327 30.4853 213.21 30.4247 213.052 30.378C212.893 30.3313 212.692 30.2847 212.45 30.238L212.31 30.21V29.482H214.55L214.718 31.078L214.774 31.148V36.188C214.774 36.216 214.83 36.244 214.942 36.272C215.054 36.2907 215.189 36.3047 215.348 36.314C215.506 36.3233 215.651 36.328 215.782 36.328H215.838V37H212.31ZM220.794 37H217.266V36.328H217.308C217.438 36.328 217.583 36.3233 217.742 36.314C217.9 36.3047 218.036 36.2907 218.148 36.272C218.269 36.244 218.33 36.216 218.33 36.188V31.61C218.33 31.302 218.288 31.05 218.204 30.854C218.129 30.658 218.003 30.5133 217.826 30.42C217.648 30.3173 217.41 30.266 217.112 30.266C216.804 30.266 216.5 30.3267 216.202 30.448C215.912 30.5693 215.628 30.7513 215.348 30.994C215.077 31.2367 214.802 31.5493 214.522 31.932V31.176C214.792 30.7747 215.077 30.4387 215.376 30.168C215.674 29.8973 215.992 29.692 216.328 29.552C216.673 29.412 217.042 29.342 217.434 29.342C217.891 29.342 218.274 29.4213 218.582 29.58C218.899 29.7293 219.142 29.9627 219.31 30.28C219.487 30.588 219.576 30.98 219.576 31.456V35.544C219.576 35.7493 219.622 35.9127 219.716 36.034C219.809 36.146 219.944 36.2253 220.122 36.272C220.299 36.3093 220.509 36.328 220.752 36.328H220.794V37ZM225.96 36.384L225.806 36.902L225.12 37.322L222.404 30.686C222.348 30.5553 222.269 30.4573 222.166 30.392C222.073 30.3267 221.952 30.2847 221.802 30.266C221.662 30.238 221.494 30.224 221.298 30.224H221.214V29.482H224.798V30.224H224.728C224.542 30.224 224.355 30.2287 224.168 30.238C223.991 30.238 223.842 30.2473 223.72 30.266C223.608 30.2753 223.552 30.2987 223.552 30.336L225.96 36.384ZM226.156 36.762C225.895 37.3967 225.638 37.938 225.386 38.386C225.134 38.834 224.873 39.1933 224.602 39.464C224.341 39.7347 224.056 39.9307 223.748 40.052C223.44 40.1827 223.09 40.248 222.698 40.248C222.446 40.248 222.222 40.22 222.026 40.164C221.83 40.1173 221.681 40.0613 221.578 39.996V38.876C221.606 38.8853 221.672 38.9087 221.774 38.946C221.886 38.9927 222.022 39.0347 222.18 39.072C222.348 39.1093 222.53 39.128 222.726 39.128C222.96 39.128 223.184 39.0953 223.398 39.03C223.622 38.9647 223.842 38.834 224.056 38.638C224.28 38.442 224.504 38.148 224.728 37.756C224.952 37.3733 225.181 36.8693 225.414 36.244L225.526 36.006L227.724 30.518C227.724 30.4527 227.668 30.4013 227.556 30.364C227.444 30.3173 227.3 30.2847 227.122 30.266C226.945 30.238 226.763 30.224 226.576 30.224H226.506V29.482H229.796V30.224H229.712C229.554 30.224 229.4 30.2427 229.25 30.28C229.11 30.308 228.98 30.3687 228.858 30.462C228.746 30.5553 228.653 30.6953 228.578 30.882L226.156 36.762Z" fill="white"/>
<path d="M296.016 31.456H301.924V32.296H296.016V31.456ZM293.734 37V36.23H293.888C294.234 36.23 294.518 36.1973 294.742 36.132C294.966 36.0667 295.078 35.9313 295.078 35.726V28.32C295.078 28.1147 294.966 27.9793 294.742 27.914C294.518 27.8487 294.234 27.816 293.888 27.816H293.734V27.06H297.724V27.816H297.598C297.468 27.816 297.328 27.8207 297.178 27.83C297.038 27.83 296.908 27.8393 296.786 27.858C296.665 27.8673 296.567 27.8813 296.492 27.9C296.418 27.9093 296.38 27.928 296.38 27.956V36.104C296.38 36.132 296.418 36.1553 296.492 36.174C296.567 36.1833 296.665 36.1973 296.786 36.216C296.908 36.2253 297.038 36.23 297.178 36.23C297.328 36.23 297.468 36.23 297.598 36.23H297.724V37H293.734ZM300.216 37V36.244H300.342C300.473 36.244 300.608 36.2393 300.748 36.23C300.898 36.2207 301.033 36.2113 301.154 36.202C301.276 36.1927 301.374 36.1833 301.448 36.174C301.523 36.1553 301.56 36.132 301.56 36.104V27.956C301.56 27.928 301.523 27.9093 301.448 27.9C301.374 27.8813 301.276 27.8673 301.154 27.858C301.033 27.8393 300.898 27.83 300.748 27.83C300.608 27.8207 300.473 27.816 300.342 27.816H300.216V27.06H304.206V27.816H304.052C303.707 27.816 303.422 27.8487 303.198 27.914C302.974 27.9793 302.862 28.1147 302.862 28.32V35.726C302.862 35.9313 302.974 36.0667 303.198 36.132C303.422 36.1973 303.707 36.23 304.052 36.23H304.206V37H300.216ZM306.737 33.318C306.737 33.8593 306.798 34.3213 306.919 34.704C307.05 35.0867 307.232 35.3947 307.465 35.628C307.698 35.8613 307.964 36.034 308.263 36.146C308.571 36.258 308.902 36.314 309.257 36.314C309.649 36.314 309.99 36.244 310.279 36.104C310.568 35.964 310.816 35.7867 311.021 35.572C311.236 35.3573 311.418 35.1287 311.567 34.886L312.239 35.432C312.062 35.7587 311.828 36.0573 311.539 36.328C311.25 36.5893 310.909 36.7947 310.517 36.944C310.134 37.084 309.705 37.154 309.229 37.154C308.52 37.154 307.88 37.0047 307.311 36.706C306.742 36.4073 306.289 35.9687 305.953 35.39C305.626 34.8113 305.463 34.116 305.463 33.304C305.463 32.5107 305.612 31.82 305.911 31.232C306.219 30.6347 306.634 30.1727 307.157 29.846C307.689 29.51 308.296 29.342 308.977 29.342C309.528 29.342 310.004 29.4307 310.405 29.608C310.806 29.7853 311.142 30.0513 311.413 30.406C311.684 30.7607 311.889 31.204 312.029 31.736C312.169 32.268 312.239 32.8887 312.239 33.598H306.443V32.786H311.315L310.951 33.094C310.932 32.562 310.881 32.114 310.797 31.75C310.722 31.3767 310.606 31.078 310.447 30.854C310.298 30.6207 310.102 30.4527 309.859 30.35C309.616 30.2473 309.322 30.196 308.977 30.196C308.65 30.196 308.347 30.2613 308.067 30.392C307.796 30.5133 307.558 30.7047 307.353 30.966C307.157 31.2273 307.003 31.554 306.891 31.946C306.788 32.338 306.737 32.7953 306.737 33.318ZM315.801 26.388V35.614C315.801 35.9033 315.908 36.0947 316.123 36.188C316.337 36.2813 316.627 36.328 316.991 36.328H317.033V37H313.337V36.328H313.393C313.757 36.328 314.041 36.2813 314.247 36.188C314.461 36.0947 314.569 35.9033 314.569 35.614V27.774C314.569 27.634 314.527 27.5313 314.443 27.466C314.368 27.3913 314.251 27.3307 314.093 27.284C313.934 27.2373 313.729 27.1907 313.477 27.144L313.337 27.116V26.388H315.801ZM321.862 40.122H317.984V39.45H318.026C318.26 39.45 318.46 39.4267 318.628 39.38C318.806 39.3427 318.941 39.2633 319.034 39.142C319.128 39.03 319.174 38.8713 319.174 38.666V30.868C319.174 30.728 319.132 30.6253 319.048 30.56C318.974 30.4853 318.852 30.4247 318.684 30.378C318.526 30.3313 318.325 30.2847 318.082 30.238L317.942 30.21V29.482H320.182L320.35 31.218L320.42 31.302V39.31C320.42 39.338 320.481 39.3613 320.602 39.38C320.724 39.408 320.868 39.4267 321.036 39.436C321.204 39.4453 321.354 39.45 321.484 39.45H321.862V40.122ZM322.884 37.154C322.474 37.154 322.105 37.084 321.778 36.944C321.461 36.804 321.167 36.6033 320.896 36.342C320.635 36.0713 320.388 35.7447 320.154 35.362L320.196 34.452C320.439 34.8627 320.691 35.2033 320.952 35.474C321.214 35.7447 321.498 35.95 321.806 36.09C322.114 36.23 322.45 36.3 322.814 36.3C323.178 36.3 323.5 36.2347 323.78 36.104C324.06 35.964 324.289 35.7633 324.466 35.502C324.653 35.2313 324.793 34.9047 324.886 34.522C324.98 34.1393 325.026 33.7007 325.026 33.206C325.026 32.7207 324.984 32.296 324.9 31.932C324.816 31.5587 324.686 31.246 324.508 30.994C324.34 30.7327 324.121 30.5367 323.85 30.406C323.58 30.2753 323.262 30.21 322.898 30.21C322.516 30.21 322.166 30.28 321.848 30.42C321.531 30.5507 321.237 30.756 320.966 31.036C320.696 31.3067 320.434 31.6473 320.182 32.058L320.154 31.19C320.406 30.798 320.668 30.4667 320.938 30.196C321.209 29.916 321.512 29.706 321.848 29.566C322.194 29.4167 322.586 29.342 323.024 29.342C323.724 29.342 324.322 29.5053 324.816 29.832C325.311 30.1587 325.689 30.6113 325.95 31.19C326.212 31.7593 326.342 32.4313 326.342 33.206C326.342 33.9713 326.207 34.6527 325.936 35.25C325.666 35.838 325.269 36.3047 324.746 36.65C324.233 36.986 323.612 37.154 322.884 37.154Z" fill="white"/>
<path d="M1178 34C1178 25.7157 1184.72 19 1193 19H1249C1257.28 19 1264 25.7157 1264 34C1264 42.2843 1257.28 49 1249 49H1219H1193C1184.72 49 1178 42.2843 1178 34Z" fill="black"/>
<path d="M1203.6 28.06H1199.51V28.816H1199.67C1200.01 28.816 1200.3 28.8487 1200.52 28.914C1200.74 28.9793 1200.86 29.1147 1200.86 29.32V36.726C1200.86 36.9313 1200.74 37.0667 1200.52 37.132C1200.3 37.1973 1200.01 37.23 1199.67 37.23H1199.51V38H1207.1V34.78H1206.22L1206.05 36.53C1206.04 36.698 1205.97 36.8287 1205.84 36.922C1205.72 37.006 1205.53 37.0667 1205.28 37.104C1205.03 37.132 1204.7 37.146 1204.3 37.146H1202.16V29.32C1202.16 29.1147 1202.27 28.9793 1202.51 28.914C1202.75 28.8487 1203.05 28.816 1203.42 28.816H1203.6V28.06ZM1216.04 34.248C1216.04 35.0413 1215.88 35.732 1215.56 36.32C1215.25 36.908 1214.82 37.3607 1214.25 37.678C1213.69 37.9953 1213.03 38.154 1212.27 38.154C1211.51 38.154 1210.84 37.9953 1210.27 37.678C1209.71 37.3607 1209.27 36.908 1208.95 36.32C1208.65 35.732 1208.49 35.0413 1208.49 34.248C1208.49 33.6507 1208.58 33.114 1208.76 32.638C1208.94 32.1527 1209.19 31.742 1209.53 31.406C1209.86 31.0607 1210.26 30.7993 1210.72 30.622C1211.18 30.4353 1211.7 30.342 1212.27 30.342C1212.84 30.342 1213.35 30.4353 1213.81 30.622C1214.27 30.7993 1214.67 31.0607 1215 31.406C1215.34 31.742 1215.59 32.1527 1215.77 32.638C1215.95 33.114 1216.04 33.6507 1216.04 34.248ZM1209.81 34.248C1209.81 34.92 1209.9 35.4847 1210.09 35.942C1210.27 36.3993 1210.55 36.7447 1210.91 36.978C1211.28 37.202 1211.73 37.314 1212.27 37.314C1212.81 37.314 1213.27 37.202 1213.63 36.978C1213.99 36.7447 1214.26 36.3993 1214.44 35.942C1214.63 35.4847 1214.72 34.92 1214.72 34.248C1214.72 33.5947 1214.63 33.044 1214.44 32.596C1214.26 32.1387 1213.99 31.7933 1213.63 31.56C1213.27 31.3173 1212.81 31.196 1212.27 31.196C1211.73 31.196 1211.28 31.3173 1210.91 31.56C1210.55 31.7933 1210.27 32.1387 1210.09 32.596C1209.9 33.044 1209.81 33.5947 1209.81 34.248ZM1225.26 31.322C1224.83 31.3033 1224.47 31.2987 1224.16 31.308C1223.86 31.3173 1223.6 31.3453 1223.39 31.392C1223.18 31.4387 1223.01 31.518 1222.87 31.63L1222.66 31.574C1222.78 31.2753 1222.93 31.0187 1223.09 30.804C1223.26 30.5893 1223.45 30.4167 1223.65 30.286C1223.87 30.1553 1224.11 30.0667 1224.37 30.02C1224.64 29.9733 1224.94 29.964 1225.26 29.992V31.322ZM1220.77 35.718C1220.19 35.718 1219.68 35.6107 1219.23 35.396C1218.79 35.172 1218.45 34.8593 1218.19 34.458C1217.95 34.0567 1217.83 33.5853 1217.83 33.044C1217.83 32.512 1217.96 32.0453 1218.21 31.644C1218.46 31.2333 1218.8 30.916 1219.24 30.692C1219.69 30.4587 1220.2 30.342 1220.77 30.342C1221.35 30.342 1221.86 30.4587 1222.31 30.692C1222.76 30.916 1223.11 31.2333 1223.36 31.644C1223.61 32.0453 1223.74 32.512 1223.74 33.044C1223.74 33.5853 1223.61 34.0567 1223.36 34.458C1223.11 34.8593 1222.76 35.172 1222.31 35.396C1221.87 35.6107 1221.36 35.718 1220.77 35.718ZM1220.77 34.892C1221.14 34.892 1221.46 34.822 1221.71 34.682C1221.97 34.542 1222.16 34.3367 1222.3 34.066C1222.43 33.786 1222.49 33.4453 1222.49 33.044C1222.49 32.6427 1222.43 32.302 1222.3 32.022C1222.16 31.742 1221.97 31.532 1221.71 31.392C1221.46 31.2427 1221.14 31.168 1220.77 31.168C1220.41 31.168 1220.1 31.2427 1219.85 31.392C1219.59 31.532 1219.4 31.742 1219.27 32.022C1219.14 32.302 1219.08 32.6427 1219.08 33.044C1219.08 33.4453 1219.14 33.786 1219.27 34.066C1219.4 34.3367 1219.59 34.542 1219.85 34.682C1220.1 34.822 1220.41 34.892 1220.77 34.892ZM1220.15 41.416C1219.55 41.416 1219.01 41.3553 1218.53 41.234C1218.06 41.122 1217.69 40.9353 1217.42 40.674C1217.15 40.422 1217.02 40.086 1217.02 39.666C1217.02 39.3953 1217.08 39.1573 1217.2 38.952C1217.32 38.7467 1217.51 38.5553 1217.76 38.378C1218.01 38.2007 1218.33 38.014 1218.71 37.818L1219.13 38.084C1218.89 38.252 1218.69 38.4107 1218.54 38.56C1218.4 38.7187 1218.3 38.8727 1218.24 39.022C1218.18 39.1713 1218.15 39.3347 1218.15 39.512C1218.15 39.736 1218.22 39.9227 1218.35 40.072C1218.49 40.2307 1218.71 40.352 1219.01 40.436C1219.3 40.5293 1219.7 40.576 1220.2 40.576H1221.39C1221.88 40.576 1222.3 40.5153 1222.65 40.394C1222.99 40.282 1223.26 40.1187 1223.44 39.904C1223.63 39.6893 1223.72 39.4327 1223.72 39.134C1223.72 38.854 1223.63 38.644 1223.44 38.504C1223.26 38.3733 1222.93 38.308 1222.45 38.308H1219.24H1219.22C1218.82 38.224 1218.5 38.1213 1218.24 38C1217.98 37.8693 1217.8 37.7107 1217.68 37.524C1217.56 37.3373 1217.51 37.1273 1217.51 36.894C1217.51 36.642 1217.57 36.4133 1217.69 36.208C1217.82 35.9933 1218 35.7927 1218.24 35.606C1218.48 35.41 1218.77 35.228 1219.1 35.06L1219.52 35.354C1219.33 35.494 1219.16 35.6293 1219.03 35.76C1218.91 35.8813 1218.82 36.0027 1218.75 36.124C1218.69 36.236 1218.66 36.362 1218.66 36.502C1218.66 36.7167 1218.74 36.8753 1218.92 36.978C1219.11 37.0713 1219.38 37.118 1219.73 37.118H1222.46C1222.99 37.118 1223.42 37.1833 1223.78 37.314C1224.13 37.4447 1224.4 37.6453 1224.59 37.916C1224.79 38.1773 1224.89 38.518 1224.89 38.938C1224.89 39.498 1224.73 39.96 1224.41 40.324C1224.09 40.6973 1223.67 40.9727 1223.14 41.15C1222.6 41.3273 1222.02 41.416 1221.39 41.416H1220.15ZM1231.43 28.942C1231.16 28.942 1230.94 28.8673 1230.77 28.718C1230.61 28.5687 1230.52 28.3447 1230.52 28.046C1230.52 27.7567 1230.61 27.5373 1230.77 27.388C1230.94 27.2387 1231.16 27.164 1231.43 27.164C1231.69 27.164 1231.91 27.2387 1232.08 27.388C1232.25 27.5373 1232.34 27.7567 1232.34 28.046C1232.34 28.3447 1232.25 28.5687 1232.08 28.718C1231.91 28.8673 1231.69 28.942 1231.43 28.942ZM1232.15 30.482V36.614C1232.15 36.9033 1232.25 37.0947 1232.47 37.188C1232.68 37.2813 1232.97 37.328 1233.34 37.328H1233.38V38H1229.68V37.328H1229.72C1230.09 37.328 1230.38 37.2813 1230.59 37.188C1230.81 37.0947 1230.91 36.9033 1230.91 36.614V31.868C1230.91 31.6627 1230.83 31.5273 1230.65 31.462C1230.47 31.3873 1230.2 31.3127 1229.82 31.238L1229.68 31.21V30.482H1232.15ZM1234.37 38V37.328H1234.41C1234.66 37.328 1234.87 37.3093 1235.04 37.272C1235.22 37.2253 1235.36 37.146 1235.45 37.034C1235.54 36.9127 1235.59 36.7493 1235.59 36.544V31.868C1235.59 31.728 1235.55 31.6253 1235.46 31.56C1235.39 31.4853 1235.27 31.4247 1235.11 31.378C1234.95 31.3313 1234.75 31.2847 1234.51 31.238L1234.37 31.21V30.482H1236.61L1236.78 32.078L1236.84 32.148V37.188C1236.84 37.216 1236.89 37.244 1237 37.272C1237.12 37.2907 1237.25 37.3047 1237.41 37.314C1237.57 37.3233 1237.71 37.328 1237.84 37.328H1237.9V38H1234.37ZM1242.86 38H1239.33V37.328H1239.37C1239.5 37.328 1239.64 37.3233 1239.8 37.314C1239.96 37.3047 1240.1 37.2907 1240.21 37.272C1240.33 37.244 1240.39 37.216 1240.39 37.188V32.61C1240.39 32.302 1240.35 32.05 1240.27 31.854C1240.19 31.658 1240.06 31.5133 1239.89 31.42C1239.71 31.3173 1239.47 31.266 1239.17 31.266C1238.87 31.266 1238.56 31.3267 1238.26 31.448C1237.97 31.5693 1237.69 31.7513 1237.41 31.994C1237.14 32.2367 1236.86 32.5493 1236.58 32.932V32.176C1236.85 31.7747 1237.14 31.4387 1237.44 31.168C1237.74 30.8973 1238.05 30.692 1238.39 30.552C1238.73 30.412 1239.1 30.342 1239.5 30.342C1239.95 30.342 1240.34 30.4213 1240.64 30.58C1240.96 30.7293 1241.2 30.9627 1241.37 31.28C1241.55 31.588 1241.64 31.98 1241.64 32.456V36.544C1241.64 36.7493 1241.68 36.9127 1241.78 37.034C1241.87 37.146 1242.01 37.2253 1242.18 37.272C1242.36 37.3093 1242.57 37.328 1242.81 37.328H1242.86V38Z" fill="white"/>
<path d="M1264 35C1264 26.7157 1270.72 20 1279 20H1335C1343.28 20 1350 26.7157 1350 35C1350 43.2843 1343.28 50 1335 50H1305H1279C1270.72 50 1264 43.2843 1264 35Z" fill="#D9D9D9"/>
<path d="M1285.22 38.384C1285.7 38.384 1286.09 38.328 1286.4 38.216C1286.72 38.0947 1286.95 37.9033 1287.1 37.642C1287.26 37.3807 1287.34 37.0353 1287.34 36.606C1287.34 36.2233 1287.26 35.9107 1287.1 35.668C1286.94 35.416 1286.72 35.2153 1286.45 35.066C1286.18 34.9073 1285.88 34.7767 1285.54 34.674C1285.21 34.5713 1284.86 34.478 1284.51 34.394C1284.1 34.282 1283.7 34.1653 1283.32 34.044C1282.94 33.9133 1282.61 33.7453 1282.31 33.54C1282.01 33.3253 1281.77 33.05 1281.6 32.714C1281.43 32.3687 1281.34 31.9347 1281.34 31.412C1281.34 30.88 1281.47 30.4227 1281.71 30.04C1281.96 29.648 1282.31 29.3447 1282.77 29.13C1283.23 28.9153 1283.77 28.808 1284.38 28.808C1284.88 28.808 1285.32 28.8827 1285.7 29.032C1286.09 29.1813 1286.43 29.4333 1286.71 29.788C1286.99 30.1333 1287.2 30.614 1287.34 31.23L1287 30.936L1287.17 28.99H1288.04V31.846H1287.1C1286.96 31.37 1286.76 30.9687 1286.51 30.642C1286.27 30.3153 1285.97 30.068 1285.63 29.9C1285.28 29.732 1284.89 29.648 1284.44 29.648C1283.99 29.648 1283.62 29.7133 1283.33 29.844C1283.05 29.9747 1282.85 30.166 1282.72 30.418C1282.59 30.6607 1282.52 30.9547 1282.52 31.3C1282.52 31.6453 1282.59 31.93 1282.73 32.154C1282.88 32.3687 1283.08 32.546 1283.33 32.686C1283.58 32.8167 1283.88 32.9333 1284.21 33.036C1284.55 33.1293 1284.91 33.2273 1285.29 33.33C1285.69 33.4327 1286.09 33.5493 1286.47 33.68C1286.86 33.8107 1287.21 33.9833 1287.53 34.198C1287.86 34.4127 1288.12 34.6927 1288.3 35.038C1288.49 35.374 1288.58 35.7987 1288.58 36.312C1288.58 36.9747 1288.43 37.5253 1288.13 37.964C1287.84 38.3933 1287.45 38.7153 1286.94 38.93C1286.45 39.1353 1285.88 39.238 1285.25 39.238C1284.66 39.238 1284.12 39.1493 1283.63 38.972C1283.14 38.7853 1282.73 38.4867 1282.38 38.076C1282.04 37.656 1281.81 37.0913 1281.68 36.382L1282.11 36.774L1281.95 39.07H1281.04V35.78H1281.99C1282.13 36.3493 1282.35 36.83 1282.65 37.222C1282.94 37.614 1283.31 37.908 1283.74 38.104C1284.18 38.2907 1284.67 38.384 1285.22 38.384ZM1291.64 29.942C1291.37 29.942 1291.15 29.8673 1290.98 29.718C1290.81 29.5687 1290.73 29.3447 1290.73 29.046C1290.73 28.7567 1290.81 28.5373 1290.98 28.388C1291.15 28.2387 1291.37 28.164 1291.64 28.164C1291.9 28.164 1292.12 28.2387 1292.28 28.388C1292.46 28.5373 1292.55 28.7567 1292.55 29.046C1292.55 29.3447 1292.46 29.5687 1292.28 29.718C1292.12 29.8673 1291.9 29.942 1291.64 29.942ZM1292.35 31.482V37.614C1292.35 37.9033 1292.46 38.0947 1292.68 38.188C1292.89 38.2813 1293.18 38.328 1293.54 38.328H1293.59V39H1289.89V38.328H1289.93C1290.3 38.328 1290.59 38.2813 1290.8 38.188C1291.02 38.0947 1291.12 37.9033 1291.12 37.614V32.868C1291.12 32.6627 1291.03 32.5273 1290.86 32.462C1290.68 32.3873 1290.4 32.3127 1290.03 32.238L1289.89 32.21V31.482H1292.35ZM1302.66 32.322C1302.23 32.3033 1301.86 32.2987 1301.55 32.308C1301.25 32.3173 1301 32.3453 1300.78 32.392C1300.58 32.4387 1300.4 32.518 1300.26 32.63L1300.05 32.574C1300.18 32.2753 1300.32 32.0187 1300.49 31.804C1300.66 31.5893 1300.84 31.4167 1301.05 31.286C1301.26 31.1553 1301.5 31.0667 1301.76 31.02C1302.03 30.9733 1302.33 30.964 1302.66 30.992V32.322ZM1298.16 36.718C1297.59 36.718 1297.07 36.6107 1296.62 36.396C1296.19 36.172 1295.84 35.8593 1295.59 35.458C1295.35 35.0567 1295.22 34.5853 1295.22 34.044C1295.22 33.512 1295.35 33.0453 1295.6 32.644C1295.85 32.2333 1296.2 31.916 1296.64 31.692C1297.09 31.4587 1297.59 31.342 1298.16 31.342C1298.74 31.342 1299.26 31.4587 1299.7 31.692C1300.15 31.916 1300.5 32.2333 1300.75 32.644C1301.01 33.0453 1301.13 33.512 1301.13 34.044C1301.13 34.5853 1301.01 35.0567 1300.75 35.458C1300.5 35.8593 1300.15 36.172 1299.7 36.396C1299.27 36.6107 1298.75 36.718 1298.16 36.718ZM1298.16 35.892C1298.54 35.892 1298.85 35.822 1299.1 35.682C1299.36 35.542 1299.56 35.3367 1299.69 35.066C1299.82 34.786 1299.89 34.4453 1299.89 34.044C1299.89 33.6427 1299.82 33.302 1299.69 33.022C1299.56 32.742 1299.36 32.532 1299.1 32.392C1298.85 32.2427 1298.54 32.168 1298.16 32.168C1297.8 32.168 1297.49 32.2427 1297.24 32.392C1296.99 32.532 1296.8 32.742 1296.67 33.022C1296.54 33.302 1296.47 33.6427 1296.47 34.044C1296.47 34.4453 1296.54 34.786 1296.67 35.066C1296.8 35.3367 1296.99 35.542 1297.24 35.682C1297.49 35.822 1297.8 35.892 1298.16 35.892ZM1297.55 42.416C1296.94 42.416 1296.4 42.3553 1295.92 42.234C1295.46 42.122 1295.09 41.9353 1294.82 41.674C1294.55 41.422 1294.41 41.086 1294.41 40.666C1294.41 40.3953 1294.47 40.1573 1294.59 39.952C1294.72 39.7467 1294.9 39.5553 1295.15 39.378C1295.41 39.2007 1295.72 39.014 1296.11 38.818L1296.53 39.084C1296.28 39.252 1296.09 39.4107 1295.94 39.56C1295.8 39.7187 1295.7 39.8727 1295.63 40.022C1295.57 40.1713 1295.55 40.3347 1295.55 40.512C1295.55 40.736 1295.61 40.9227 1295.74 41.072C1295.88 41.2307 1296.1 41.352 1296.4 41.436C1296.7 41.5293 1297.1 41.576 1297.59 41.576H1298.78C1299.27 41.576 1299.69 41.5153 1300.04 41.394C1300.39 41.282 1300.65 41.1187 1300.84 40.904C1301.02 40.6893 1301.12 40.4327 1301.12 40.134C1301.12 39.854 1301.02 39.644 1300.84 39.504C1300.65 39.3733 1300.32 39.308 1299.84 39.308H1296.64H1296.61C1296.22 39.224 1295.89 39.1213 1295.63 39C1295.38 38.8693 1295.19 38.7107 1295.07 38.524C1294.96 38.3373 1294.9 38.1273 1294.9 37.894C1294.9 37.642 1294.96 37.4133 1295.08 37.208C1295.21 36.9933 1295.4 36.7927 1295.63 36.606C1295.87 36.41 1296.16 36.228 1296.5 36.06L1296.92 36.354C1296.72 36.494 1296.56 36.6293 1296.43 36.76C1296.31 36.8813 1296.21 37.0027 1296.15 37.124C1296.08 37.236 1296.05 37.362 1296.05 37.502C1296.05 37.7167 1296.14 37.8753 1296.32 37.978C1296.5 38.0713 1296.77 38.118 1297.13 38.118H1299.86C1300.38 38.118 1300.82 38.1833 1301.17 38.314C1301.53 38.4447 1301.8 38.6453 1301.99 38.916C1302.18 39.1773 1302.28 39.518 1302.28 39.938C1302.28 40.498 1302.12 40.96 1301.8 41.324C1301.49 41.6973 1301.06 41.9727 1300.53 42.15C1300 42.3273 1299.41 42.416 1298.78 42.416H1297.55ZM1303.44 39V38.328H1303.48C1303.72 38.328 1303.93 38.3093 1304.11 38.272C1304.29 38.2253 1304.42 38.146 1304.52 38.034C1304.61 37.9127 1304.66 37.7493 1304.66 37.544V32.868C1304.66 32.728 1304.62 32.6253 1304.53 32.56C1304.46 32.4853 1304.34 32.4247 1304.18 32.378C1304.02 32.3313 1303.82 32.2847 1303.58 32.238L1303.44 32.21V31.482H1305.68L1305.85 33.078L1305.9 33.148V38.188C1305.9 38.216 1305.96 38.244 1306.07 38.272C1306.18 38.2907 1306.32 38.3047 1306.48 38.314C1306.64 38.3233 1306.78 38.328 1306.91 38.328H1306.97V39H1303.44ZM1311.92 39H1308.4V38.328H1308.44C1308.57 38.328 1308.71 38.3233 1308.87 38.314C1309.03 38.3047 1309.17 38.2907 1309.28 38.272C1309.4 38.244 1309.46 38.216 1309.46 38.188V33.61C1309.46 33.302 1309.42 33.05 1309.33 32.854C1309.26 32.658 1309.13 32.5133 1308.96 32.42C1308.78 32.3173 1308.54 32.266 1308.24 32.266C1307.93 32.266 1307.63 32.3267 1307.33 32.448C1307.04 32.5693 1306.76 32.7513 1306.48 32.994C1306.21 33.2367 1305.93 33.5493 1305.65 33.932V33.176C1305.92 32.7747 1306.21 32.4387 1306.51 32.168C1306.8 31.8973 1307.12 31.692 1307.46 31.552C1307.8 31.412 1308.17 31.342 1308.56 31.342C1309.02 31.342 1309.4 31.4213 1309.71 31.58C1310.03 31.7293 1310.27 31.9627 1310.44 32.28C1310.62 32.588 1310.71 32.98 1310.71 33.456V37.544C1310.71 37.7493 1310.75 37.9127 1310.85 38.034C1310.94 38.146 1311.07 38.2253 1311.25 38.272C1311.43 38.3093 1311.64 38.328 1311.88 38.328H1311.92V39ZM1318.82 31.482V36.872C1318.82 37.1707 1318.86 37.4227 1318.93 37.628C1319.02 37.824 1319.14 37.9733 1319.31 38.076C1319.49 38.1693 1319.72 38.216 1320.02 38.216C1320.33 38.216 1320.63 38.1553 1320.91 38.034C1321.19 37.9127 1321.47 37.7307 1321.75 37.488C1322.03 37.2453 1322.3 36.9373 1322.57 36.564V37.32C1322.31 37.712 1322.03 38.0433 1321.73 38.314C1321.44 38.5847 1321.13 38.79 1320.79 38.93C1320.46 39.07 1320.09 39.14 1319.7 39.14C1319.26 39.14 1318.88 39.0653 1318.55 38.916C1318.24 38.7573 1317.99 38.5193 1317.83 38.202C1317.66 37.8847 1317.57 37.4927 1317.57 37.026V32.868C1317.57 32.6627 1317.48 32.518 1317.31 32.434C1317.13 32.35 1316.86 32.2847 1316.5 32.238L1316.29 32.21V31.482H1318.82ZM1323.57 31.482V37.698C1323.57 37.8287 1323.61 37.9313 1323.71 38.006C1323.8 38.0807 1323.93 38.1367 1324.1 38.174C1324.27 38.2113 1324.48 38.2393 1324.71 38.258L1324.8 38.272V39H1322.54L1322.38 37.362L1322.32 37.278V32.868C1322.32 32.6627 1322.23 32.518 1322.04 32.434C1321.86 32.35 1321.59 32.2893 1321.21 32.252L1320.88 32.21V31.482H1323.57ZM1329.62 42.122H1325.74V41.45H1325.78C1326.01 41.45 1326.21 41.4267 1326.38 41.38C1326.56 41.3427 1326.7 41.2633 1326.79 41.142C1326.88 41.03 1326.93 40.8713 1326.93 40.666V32.868C1326.93 32.728 1326.89 32.6253 1326.8 32.56C1326.73 32.4853 1326.61 32.4247 1326.44 32.378C1326.28 32.3313 1326.08 32.2847 1325.84 32.238L1325.7 32.21V31.482H1327.94L1328.1 33.218L1328.17 33.302V41.31C1328.17 41.338 1328.24 41.3613 1328.36 41.38C1328.48 41.408 1328.62 41.4267 1328.79 41.436C1328.96 41.4453 1329.11 41.45 1329.24 41.45H1329.62V42.122ZM1330.64 39.154C1330.23 39.154 1329.86 39.084 1329.53 38.944C1329.22 38.804 1328.92 38.6033 1328.65 38.342C1328.39 38.0713 1328.14 37.7447 1327.91 37.362L1327.95 36.452C1328.19 36.8627 1328.45 37.2033 1328.71 37.474C1328.97 37.7447 1329.25 37.95 1329.56 38.09C1329.87 38.23 1330.2 38.3 1330.57 38.3C1330.93 38.3 1331.25 38.2347 1331.53 38.104C1331.81 37.964 1332.04 37.7633 1332.22 37.502C1332.41 37.2313 1332.55 36.9047 1332.64 36.522C1332.73 36.1393 1332.78 35.7007 1332.78 35.206C1332.78 34.7207 1332.74 34.296 1332.65 33.932C1332.57 33.5587 1332.44 33.246 1332.26 32.994C1332.09 32.7327 1331.88 32.5367 1331.6 32.406C1331.33 32.2753 1331.02 32.21 1330.65 32.21C1330.27 32.21 1329.92 32.28 1329.6 32.42C1329.29 32.5507 1328.99 32.756 1328.72 33.036C1328.45 33.3067 1328.19 33.6473 1327.94 34.058L1327.91 33.19C1328.16 32.798 1328.42 32.4667 1328.69 32.196C1328.96 31.916 1329.27 31.706 1329.6 31.566C1329.95 31.4167 1330.34 31.342 1330.78 31.342C1331.48 31.342 1332.08 31.5053 1332.57 31.832C1333.07 32.1587 1333.44 32.6113 1333.7 33.19C1333.97 33.7593 1334.1 34.4313 1334.1 35.206C1334.1 35.9713 1333.96 36.6527 1333.69 37.25C1333.42 37.838 1333.02 38.3047 1332.5 38.65C1331.99 38.986 1331.37 39.154 1330.64 39.154Z" fill="black"/>
<path d="M51.5886 40.408V22.872C51.5886 22.4027 51.3326 22.0933 50.8206 21.944C50.3086 21.7947 49.6686 21.72 48.9006 21.72H48.5486V20.28H57.6046V21.72H57.2846C56.4953 21.72 55.8446 21.7947 55.3326 21.944C54.8206 22.0933 54.5646 22.4027 54.5646 22.872V40.408C54.5646 40.8773 54.8206 41.1867 55.3326 41.336C55.8446 41.4853 56.4953 41.56 57.2846 41.56H57.6046V43H48.5486V41.56H48.9006C49.6686 41.56 50.3086 41.4853 50.8206 41.336C51.3326 41.1867 51.5886 40.8773 51.5886 40.408ZM71.3996 26.488V29.336C71.2503 29.272 71.069 29.2293 70.8556 29.208C70.6636 29.1653 70.461 29.1333 70.2476 29.112C70.0343 29.0907 69.8316 29.08 69.6396 29.08C69.0636 29.08 68.5623 29.1653 68.1356 29.336C67.709 29.4853 67.325 29.72 66.9836 30.04C66.6636 30.3387 66.365 30.7333 66.0876 31.224C65.8316 31.7147 65.5436 32.3013 65.2236 32.984L65.1916 30.968C65.5116 30.0507 65.917 29.2507 66.4076 28.568C66.8983 27.8853 67.4636 27.352 68.1036 26.968C68.765 26.584 69.501 26.392 70.3116 26.392C70.525 26.392 70.7276 26.4027 70.9196 26.424C71.133 26.424 71.293 26.4453 71.3996 26.488ZM60.2316 43V41.592H60.2636C61.0316 41.592 61.661 41.5173 62.1516 41.368C62.6423 41.2187 62.8876 40.9093 62.8876 40.44V29.624C62.8876 29.304 62.8023 29.0693 62.6316 28.92C62.461 28.7493 62.1943 28.6107 61.8316 28.504C61.4903 28.3973 61.0636 28.2907 60.5516 28.184L60.2316 28.12V26.712H65.4476V31.384L65.7356 31.096V40.568C65.7356 40.888 65.885 41.1227 66.1836 41.272C66.4823 41.4213 66.8343 41.5173 67.2396 41.56C67.6663 41.5813 68.0396 41.592 68.3596 41.592H68.9036V43H60.2316ZM77.3246 23.128C76.77 23.128 76.3006 22.9573 75.9166 22.616C75.554 22.2533 75.3726 21.7733 75.3726 21.176C75.3726 20.5787 75.554 20.1093 75.9166 19.768C76.3006 19.4267 76.77 19.256 77.3246 19.256C77.8793 19.256 78.338 19.4267 78.7006 19.768C79.0846 20.1093 79.2766 20.5787 79.2766 21.176C79.2766 21.7733 79.0846 22.2533 78.7006 22.616C78.338 22.9573 77.8793 23.128 77.3246 23.128ZM78.8926 26.712V40.44C78.8926 40.9093 79.138 41.2187 79.6286 41.368C80.1406 41.5173 80.77 41.592 81.5166 41.592H81.5486V43H73.3566V41.592H73.4206C74.1673 41.592 74.786 41.5173 75.2766 41.368C75.7886 41.2187 76.0446 40.9093 76.0446 40.44V29.624C76.0446 29.1547 75.8526 28.8347 75.4686 28.664C75.0846 28.4933 74.498 28.3333 73.7086 28.184L73.3566 28.12V26.712H78.8926ZM83.5129 43V41.592H83.5449C84.0569 41.592 84.5049 41.56 84.8889 41.496C85.2942 41.432 85.6035 41.3147 85.8169 41.144C86.0515 40.9733 86.1689 40.7387 86.1689 40.44V29.624C86.1689 29.304 86.0835 29.0693 85.9129 28.92C85.7422 28.7493 85.4755 28.6107 85.1129 28.504C84.7715 28.3973 84.3449 28.2907 83.8329 28.184L83.5129 28.12V26.712H88.7289V30.104L89.0169 30.456V41.272C89.0169 41.336 89.1449 41.4 89.4009 41.464C89.6569 41.5067 89.9662 41.5387 90.3289 41.56C90.6915 41.5813 91.0222 41.592 91.3209 41.592H91.4169V43H83.5129ZM102.169 43H94.2649V41.592H94.3289C94.6275 41.592 94.9582 41.5813 95.3209 41.56C95.6835 41.5387 95.9929 41.5067 96.2489 41.464C96.5049 41.4 96.6329 41.336 96.6329 41.272V31.864C96.6329 31.032 96.5475 30.36 96.3769 29.848C96.2062 29.336 95.9182 28.9627 95.5129 28.728C95.1289 28.472 94.5955 28.344 93.9129 28.344C93.2089 28.344 92.5369 28.4827 91.8969 28.76C91.2569 29.0373 90.6489 29.4533 90.0729 30.008C89.5182 30.5627 88.9849 31.256 88.4729 32.088L88.4089 30.04C88.9849 29.2293 89.5715 28.5573 90.1689 28.024C90.7662 27.4693 91.4062 27.064 92.0889 26.808C92.7929 26.5307 93.5715 26.392 94.4249 26.392C95.4489 26.392 96.3342 26.5733 97.0809 26.936C97.8489 27.2987 98.4355 27.864 98.8409 28.632C99.2675 29.3787 99.4809 30.3493 99.4809 31.544V40.44C99.4809 40.7387 99.5875 40.9733 99.8009 41.144C100.036 41.3147 100.345 41.432 100.729 41.496C101.134 41.56 101.593 41.592 102.105 41.592H102.169V43Z" fill="white"/>
<path d="M1046 35C1046 26.7157 1052.72 20 1061 20H1141C1149.28 20 1156 26.7157 1156 35C1156 43.2843 1149.28 50 1141 50H1098.44H1061C1052.72 50 1046 43.2843 1046 35Z" fill="black"/>
<path d="M1080.22 39.104V30.9H1082C1082.49 30.9 1082.9 30.984 1083.21 31.152C1083.54 31.3107 1083.78 31.544 1083.94 31.852C1084.1 32.16 1084.18 32.5473 1084.18 33.014C1084.18 33.4807 1084.1 33.8773 1083.94 34.204C1083.78 34.5307 1083.54 34.7827 1083.21 34.96C1082.89 35.128 1082.47 35.212 1081.97 35.212H1079.83V36.038H1081.98C1082.71 36.038 1083.34 35.9167 1083.87 35.674C1084.41 35.4313 1084.83 35.086 1085.12 34.638C1085.42 34.1807 1085.57 33.6347 1085.57 33C1085.57 32.048 1085.25 31.32 1084.63 30.816C1084 30.312 1083.13 30.06 1082.01 30.06H1077.57V30.816H1077.73C1078.07 30.816 1078.36 30.8487 1078.58 30.914C1078.8 30.9793 1078.92 31.1147 1078.92 31.32V38.726C1078.92 38.9313 1078.8 39.0667 1078.58 39.132C1078.36 39.1973 1078.07 39.23 1077.73 39.23H1077.57V40H1081.74V39.23H1081.42C1081.27 39.23 1081.13 39.23 1080.99 39.23C1080.85 39.2207 1080.72 39.2113 1080.6 39.202C1080.48 39.1927 1080.39 39.1833 1080.32 39.174C1080.25 39.1553 1080.22 39.132 1080.22 39.104ZM1092.12 32.384V33.728C1092.05 33.7093 1091.97 33.6953 1091.88 33.686C1091.78 33.6767 1091.69 33.6673 1091.58 33.658C1091.49 33.6487 1091.4 33.644 1091.3 33.644C1091.04 33.644 1090.81 33.672 1090.6 33.728C1090.4 33.7747 1090.21 33.854 1090.03 33.966C1089.86 34.0687 1089.7 34.204 1089.54 34.372C1089.39 34.54 1089.23 34.7453 1089.05 34.988V34.344C1089.28 33.9053 1089.52 33.5367 1089.76 33.238C1090.02 32.9393 1090.29 32.7153 1090.59 32.566C1090.89 32.4073 1091.22 32.328 1091.6 32.328C1091.71 32.328 1091.81 32.3327 1091.91 32.342C1092.01 32.3513 1092.08 32.3653 1092.12 32.384ZM1086.84 40V39.328H1086.88C1087.24 39.328 1087.53 39.2767 1087.73 39.174C1087.95 39.0713 1088.06 38.8613 1088.06 38.544V33.868C1088.06 33.728 1088.01 33.6253 1087.93 33.56C1087.86 33.4853 1087.74 33.4247 1087.58 33.378C1087.42 33.3313 1087.22 33.2847 1086.98 33.238L1086.84 33.21V32.482H1089.08L1089.25 34.358L1089.3 34.302V39.02C1089.3 39.104 1089.37 39.1693 1089.5 39.216C1089.63 39.2627 1089.78 39.2953 1089.96 39.314C1090.14 39.3233 1090.29 39.328 1090.42 39.328H1090.73V40H1086.84ZM1100.61 36.248C1100.61 37.0413 1100.45 37.732 1100.13 38.32C1099.82 38.908 1099.38 39.3607 1098.81 39.678C1098.25 39.9953 1097.6 40.154 1096.84 40.154C1096.08 40.154 1095.41 39.9953 1094.84 39.678C1094.28 39.3607 1093.84 38.908 1093.52 38.32C1093.21 37.732 1093.06 37.0413 1093.06 36.248C1093.06 35.6507 1093.15 35.114 1093.33 34.638C1093.5 34.1527 1093.76 33.742 1094.1 33.406C1094.43 33.0607 1094.83 32.7993 1095.29 32.622C1095.75 32.4353 1096.27 32.342 1096.84 32.342C1097.41 32.342 1097.92 32.4353 1098.38 32.622C1098.84 32.7993 1099.23 33.0607 1099.57 33.406C1099.91 33.742 1100.16 34.1527 1100.34 34.638C1100.52 35.114 1100.61 35.6507 1100.61 36.248ZM1094.38 36.248C1094.38 36.92 1094.47 37.4847 1094.66 37.942C1094.84 38.3993 1095.12 38.7447 1095.48 38.978C1095.85 39.202 1096.3 39.314 1096.84 39.314C1097.38 39.314 1097.83 39.202 1098.2 38.978C1098.56 38.7447 1098.83 38.3993 1099.01 37.942C1099.2 37.4847 1099.29 36.92 1099.29 36.248C1099.29 35.5947 1099.2 35.044 1099.01 34.596C1098.83 34.1387 1098.56 33.7933 1098.2 33.56C1097.83 33.3173 1097.38 33.196 1096.84 33.196C1096.3 33.196 1095.85 33.3173 1095.48 33.56C1095.12 33.7933 1094.84 34.1387 1094.66 34.596C1094.47 35.044 1094.38 35.5947 1094.38 36.248ZM1109.13 38.698C1109.13 38.9033 1109.23 39.0387 1109.44 39.104C1109.65 39.1693 1109.93 39.2207 1110.28 39.258L1110.35 39.272V40H1108.11L1107.94 38.362L1107.88 38.348V30.774C1107.88 30.634 1107.84 30.5313 1107.76 30.466C1107.68 30.3913 1107.56 30.3307 1107.39 30.284C1107.23 30.2373 1107.03 30.1907 1106.78 30.144L1106.64 30.116V29.388H1109.13V38.698ZM1105.42 32.342C1105.83 32.342 1106.19 32.412 1106.51 32.552C1106.84 32.692 1107.13 32.8927 1107.39 33.154C1107.66 33.4153 1107.91 33.742 1108.14 34.134L1108.09 35.058C1107.86 34.638 1107.61 34.2927 1107.35 34.022C1107.09 33.742 1106.81 33.5367 1106.5 33.406C1106.2 33.2753 1105.86 33.21 1105.49 33.21C1105.13 33.21 1104.8 33.28 1104.52 33.42C1104.24 33.5507 1104.01 33.7467 1103.82 34.008C1103.64 34.2693 1103.5 34.596 1103.4 34.988C1103.31 35.3707 1103.26 35.8093 1103.26 36.304C1103.26 36.78 1103.31 37.2047 1103.39 37.578C1103.48 37.9513 1103.61 38.2687 1103.78 38.53C1103.96 38.782 1104.18 38.9733 1104.45 39.104C1104.72 39.2347 1105.04 39.3 1105.41 39.3C1105.8 39.3 1106.15 39.2347 1106.47 39.104C1106.79 38.964 1107.08 38.7587 1107.35 38.488C1107.62 38.208 1107.88 37.8627 1108.12 37.452L1108.14 38.306C1107.89 38.698 1107.64 39.034 1107.37 39.314C1107.09 39.5847 1106.79 39.7947 1106.44 39.944C1106.11 40.084 1105.72 40.154 1105.29 40.154C1104.58 40.154 1103.98 39.9953 1103.49 39.678C1102.99 39.3513 1102.61 38.8987 1102.34 38.32C1102.08 37.7413 1101.95 37.0693 1101.95 36.304C1101.95 35.5293 1102.08 34.848 1102.35 34.26C1102.63 33.6627 1103.03 33.196 1103.56 32.86C1104.08 32.5147 1104.7 32.342 1105.42 32.342ZM1113.58 32.482V37.872C1113.58 38.1707 1113.62 38.4227 1113.69 38.628C1113.78 38.824 1113.9 38.9733 1114.07 39.076C1114.25 39.1693 1114.48 39.216 1114.78 39.216C1115.09 39.216 1115.39 39.1553 1115.67 39.034C1115.95 38.9127 1116.23 38.7307 1116.51 38.488C1116.79 38.2453 1117.06 37.9373 1117.33 37.564V38.32C1117.07 38.712 1116.79 39.0433 1116.49 39.314C1116.2 39.5847 1115.89 39.79 1115.55 39.93C1115.22 40.07 1114.85 40.14 1114.46 40.14C1114.02 40.14 1113.64 40.0653 1113.31 39.916C1113 39.7573 1112.75 39.5193 1112.59 39.202C1112.42 38.8847 1112.33 38.4927 1112.33 38.026V33.868C1112.33 33.6627 1112.24 33.518 1112.07 33.434C1111.89 33.35 1111.62 33.2847 1111.26 33.238L1111.05 33.21V32.482H1113.58ZM1118.33 32.482V38.698C1118.33 38.8287 1118.37 38.9313 1118.47 39.006C1118.56 39.0807 1118.69 39.1367 1118.86 39.174C1119.03 39.2113 1119.24 39.2393 1119.47 39.258L1119.56 39.272V40H1117.3L1117.14 38.362L1117.08 38.278V33.868C1117.08 33.6627 1116.99 33.518 1116.8 33.434C1116.62 33.35 1116.35 33.2893 1115.97 33.252L1115.64 33.21V32.482H1118.33ZM1124.45 39.314C1124.86 39.314 1125.21 39.244 1125.5 39.104C1125.79 38.964 1126.05 38.7867 1126.25 38.572C1126.47 38.348 1126.65 38.1147 1126.81 37.872L1127.47 38.418C1127.28 38.754 1127.04 39.0573 1126.74 39.328C1126.45 39.5893 1126.11 39.7947 1125.72 39.944C1125.34 40.084 1124.9 40.154 1124.42 40.154C1123.62 40.154 1122.94 39.9953 1122.36 39.678C1121.79 39.3513 1121.35 38.8987 1121.04 38.32C1120.74 37.732 1120.58 37.0413 1120.58 36.248C1120.58 35.4453 1120.74 34.7547 1121.06 34.176C1121.38 33.588 1121.82 33.1353 1122.4 32.818C1122.99 32.5007 1123.69 32.342 1124.49 32.342C1124.97 32.342 1125.4 32.384 1125.78 32.468C1126.15 32.552 1126.46 32.65 1126.71 32.762C1126.97 32.8647 1127.15 32.958 1127.26 33.042V35.17H1126V33.364C1126.09 33.3733 1126.18 33.3967 1126.27 33.434C1126.35 33.462 1126.42 33.504 1126.48 33.56C1126.53 33.616 1126.57 33.6767 1126.6 33.742C1126.63 33.8073 1126.64 33.8773 1126.64 33.952C1126.44 33.7373 1126.14 33.56 1125.76 33.42C1125.38 33.2707 1124.95 33.196 1124.49 33.196C1123.9 33.196 1123.41 33.3173 1123.03 33.56C1122.65 33.7933 1122.36 34.1387 1122.18 34.596C1121.99 35.0533 1121.9 35.604 1121.9 36.248C1121.9 36.7427 1121.95 37.1813 1122.05 37.564C1122.15 37.9467 1122.31 38.2687 1122.51 38.53C1122.73 38.7913 1122.99 38.9873 1123.31 39.118C1123.63 39.2487 1124.01 39.314 1124.45 39.314ZM1128.24 33.322V32.552H1128.39C1128.71 32.552 1128.98 32.5333 1129.19 32.496C1129.41 32.4493 1129.57 32.3607 1129.67 32.23C1129.78 32.0993 1129.84 31.9033 1129.84 31.642L1130.75 32.482H1133.42V33.322H1128.24ZM1130.98 37.718C1130.98 38.11 1131.04 38.418 1131.15 38.642C1131.26 38.866 1131.43 39.0247 1131.64 39.118C1131.86 39.2113 1132.11 39.258 1132.41 39.258C1132.66 39.258 1132.88 39.244 1133.08 39.216C1133.29 39.1787 1133.43 39.1507 1133.5 39.132V39.972C1133.41 40 1133.29 40.028 1133.15 40.056C1133.01 40.084 1132.87 40.1073 1132.72 40.126C1132.57 40.1447 1132.42 40.154 1132.26 40.154C1131.82 40.154 1131.41 40.0887 1131.03 39.958C1130.64 39.8273 1130.33 39.5893 1130.09 39.244C1129.86 38.8893 1129.74 38.3853 1129.74 37.732V32.692L1129.84 32.58V30.34H1130.98V37.718ZM1139.38 38.026C1139.38 37.802 1139.33 37.6153 1139.21 37.466C1139.11 37.3167 1138.97 37.1953 1138.78 37.102C1138.59 37.0087 1138.38 36.9293 1138.14 36.864C1137.9 36.7987 1137.66 36.738 1137.41 36.682C1137.1 36.6167 1136.8 36.5373 1136.5 36.444C1136.2 36.3413 1135.93 36.2107 1135.69 36.052C1135.44 35.8933 1135.25 35.688 1135.1 35.436C1134.96 35.184 1134.89 34.862 1134.89 34.47C1134.89 34.0407 1135 33.6673 1135.21 33.35C1135.42 33.0327 1135.74 32.7853 1136.15 32.608C1136.56 32.4307 1137.05 32.342 1137.63 32.342C1138.09 32.342 1138.49 32.37 1138.82 32.426C1139.17 32.4727 1139.45 32.538 1139.68 32.622C1139.91 32.6967 1140.08 32.7667 1140.19 32.832V34.582H1138.96V33.14C1139.06 33.14 1139.13 33.154 1139.2 33.182C1139.27 33.2007 1139.33 33.238 1139.37 33.294C1139.41 33.35 1139.45 33.42 1139.47 33.504C1139.49 33.5787 1139.5 33.672 1139.49 33.784C1139.38 33.644 1139.23 33.532 1139.05 33.448C1138.86 33.3547 1138.64 33.2847 1138.4 33.238C1138.17 33.1913 1137.91 33.168 1137.63 33.168C1137.08 33.168 1136.68 33.2753 1136.41 33.49C1136.16 33.6953 1136.04 33.9753 1136.04 34.33C1136.04 34.554 1136.09 34.7453 1136.19 34.904C1136.3 35.0533 1136.45 35.1747 1136.64 35.268C1136.82 35.3613 1137.04 35.4407 1137.28 35.506C1137.53 35.5713 1137.8 35.6367 1138.07 35.702C1138.36 35.7673 1138.66 35.8467 1138.96 35.94C1139.26 36.0333 1139.53 36.1593 1139.76 36.318C1140 36.4767 1140.19 36.6867 1140.33 36.948C1140.48 37.2 1140.56 37.5173 1140.56 37.9C1140.56 38.3293 1140.45 38.7167 1140.22 39.062C1140 39.398 1139.67 39.664 1139.23 39.86C1138.79 40.056 1138.25 40.154 1137.6 40.154C1137.14 40.154 1136.72 40.1213 1136.34 40.056C1135.98 39.9907 1135.65 39.9067 1135.36 39.804C1135.08 39.7013 1134.84 39.5847 1134.64 39.454V37.62H1135.9V39.552C1135.75 39.4867 1135.63 39.4167 1135.55 39.342C1135.47 39.2673 1135.42 39.1927 1135.39 39.118C1135.36 39.034 1135.35 38.9547 1135.35 38.88C1135.35 38.796 1135.36 38.712 1135.38 38.628C1135.53 38.7587 1135.71 38.8753 1135.92 38.978C1136.15 39.0807 1136.4 39.1647 1136.68 39.23C1136.96 39.286 1137.27 39.314 1137.6 39.314C1138 39.314 1138.32 39.2673 1138.58 39.174C1138.85 39.0807 1139.04 38.9407 1139.17 38.754C1139.31 38.558 1139.38 38.3153 1139.38 38.026Z" fill="white"/>
<rect x="1060" y="29" width="1" height="1" fill="white"/>
<rect x="1060" y="35" width="1" height="1" fill="white"/>
<rect x="1060" y="41" width="1" height="1" fill="white"/>
<rect x="1065" y="29" width="1" height="1" fill="white"/>
<rect x="1065" y="35" width="1" height="1" fill="white"/>
<rect x="1065" y="41" width="1" height="1" fill="white"/>
<rect x="1055" y="29" width="1" height="1" fill="white"/>
<rect x="1055" y="35" width="1" height="1" fill="white"/>
<rect x="1055" y="41" width="1" height="1" fill="white"/>
<path d="M933 35C933 26.7157 939.716 20 948 20H1004C1012.28 20 1019 26.7157 1019 35C1019 43.2843 1012.28 50 1004 50H974H948C939.716 50 933 43.2843 933 35Z" fill="black"/>
<path d="M985.055 36.892V40H977.215V39.23H977.369C977.714 39.23 977.999 39.1973 978.223 39.132C978.447 39.0667 978.559 38.9313 978.559 38.726V31.32C978.559 31.1147 978.447 30.9793 978.223 30.914C977.999 30.8487 977.714 30.816 977.369 30.816H977.215V30.06H984.705V32.818H983.865L983.711 31.516C983.692 31.348 983.622 31.222 983.501 31.138C983.379 31.0447 983.193 30.984 982.941 30.956C982.689 30.9187 982.362 30.9 981.961 30.9H979.847V39.146H982.269C982.567 39.146 982.824 39.1413 983.039 39.132C983.263 39.1133 983.445 39.0807 983.585 39.034C983.725 38.9873 983.827 38.922 983.893 38.838C983.967 38.754 984.009 38.6513 984.019 38.53L984.187 36.892H985.055ZM979.525 34.512C979.945 34.484 980.365 34.4653 980.785 34.456C981.205 34.4373 981.625 34.4187 982.045 34.4C982.465 34.3813 982.885 34.3627 983.305 34.344V35.45C982.885 35.4313 982.465 35.4127 982.045 35.394C981.625 35.3753 981.205 35.3567 980.785 35.338C980.365 35.3193 979.945 35.3007 979.525 35.282V34.512ZM986.744 40V39.23H986.898C987.132 39.23 987.337 39.216 987.514 39.188C987.692 39.1507 987.832 39.0947 987.934 39.02C988.037 38.936 988.088 38.8287 988.088 38.698V31.32C988.088 31.18 988.037 31.0773 987.934 31.012C987.832 30.9373 987.692 30.886 987.514 30.858C987.337 30.83 987.132 30.816 986.898 30.816H986.744V30.06H989.88L994.794 38.698L994.626 38.768V30.998C994.626 30.9607 994.561 30.9327 994.43 30.914C994.309 30.886 994.155 30.8627 993.968 30.844C993.782 30.8253 993.595 30.816 993.408 30.816H993.212V30.06H996.922V30.816H996.754C996.53 30.816 996.325 30.8347 996.138 30.872C995.961 30.9093 995.821 30.9653 995.718 31.04C995.616 31.1147 995.564 31.222 995.564 31.362V40H994.164L988.83 30.648L989.026 30.592V39.062C989.026 39.09 989.092 39.118 989.222 39.146C989.353 39.174 989.512 39.1973 989.698 39.216C989.894 39.2253 990.076 39.23 990.244 39.23H990.44V40H986.744Z" fill="white"/>
<circle cx="957.313" cy="35.3133" r="8" transform="rotate(-45.5 957.313 35.3133)" fill="black" stroke="white"/>
<ellipse cx="957.201" cy="35.4274" rx="3.36" ry="8" transform="rotate(-45.5 957.201 35.4274)" fill="black" stroke="white"/>
<path d="M952.275 41.3538L963.153 30.2841" stroke="white"/>
</svg>
